<svg width="25" height="25" viewBox="0 0 25 25" fill="none" xmlns="http://www.w3.org/2000/svg">
<path d="M17.2224 9.84625L8.22241 4.65625" stroke="white" stroke-width="2" stroke-linecap="round" stroke-linejoin="round"/>
<path d="M21.7224 16.4462V8.44619C21.7221 8.09547 21.6295 7.751 21.454 7.44735C21.2784 7.14371 21.0261 6.89155 20.7224 6.71619L13.7224 2.71619C13.4184 2.54065 13.0735 2.44824 12.7224 2.44824C12.3713 2.44824 12.0265 2.54065 11.7224 2.71619L4.72241 6.71619C4.41867 6.89155 4.16639 7.14371 3.99087 7.44735C3.81535 7.751 3.72277 8.09547 3.72241 8.44619V16.4462C3.72277 16.7969 3.81535 17.1414 3.99087 17.445C4.16639 17.7487 4.41867 18.0008 4.72241 18.1762L11.7224 22.1762C12.0265 22.3517 12.3713 22.4441 12.7224 22.4441C13.0735 22.4441 13.4184 22.3517 13.7224 22.1762L20.7224 18.1762C21.0261 18.0008 21.2784 17.7487 21.454 17.445C21.6295 17.1414 21.7221 16.7969 21.7224 16.4462Z" stroke="white" stroke-width="2" stroke-linecap="round" stroke-linejoin="round"/>
<path d="M3.99243 7.40625L12.7224 12.4563L21.4524 7.40625" stroke="white" stroke-width="2" stroke-linecap="round" stroke-linejoin="round"/>
<path d="M12.7224 22.5263V12.4463" stroke="white" stroke-width="2" stroke-linecap="round" stroke-linejoin="round"/>
</svg>
