<svg width="45" height="45" viewBox="0 0 45 45" fill="none" xmlns="http://www.w3.org/2000/svg">
<path d="M27.0187 36.3938C26.5832 36.8319 26.0461 37.1557 25.4552 37.3363C24.8644 37.5168 24.2381 37.5486 23.632 37.4288C23.0259 37.309 22.4588 37.0413 21.9811 36.6494C21.5034 36.2576 21.1299 35.7539 20.8938 35.1829C20.6577 34.612 20.5664 33.9915 20.6279 33.3768C20.6894 32.762 20.9018 32.172 21.2463 31.6591C21.5908 31.1462 22.0566 30.7264 22.6025 30.437C23.1483 30.1475 23.7572 29.9974 24.375 30H41.25M21.3937 8.60628C20.9582 8.16812 20.4211 7.84436 19.8302 7.6638C19.2394 7.48323 18.6131 7.45144 18.007 7.57126C17.4009 7.69108 16.8338 7.9588 16.3561 8.35062C15.8784 8.74243 15.5049 9.2462 15.2688 9.81714C15.0327 10.3881 14.9414 11.0085 15.0029 11.6233C15.0644 12.238 15.2768 12.8281 15.6213 13.341C15.9658 13.8538 16.4316 14.2737 16.9775 14.5631C17.5233 14.8525 18.1322 15.0026 18.75 15H41.25M11.7562 30.5063C11.2109 31.0502 10.5399 31.4514 9.80263 31.6744C9.06534 31.8973 8.28447 31.9351 7.52909 31.7845C6.77371 31.6338 6.06709 31.2994 5.47173 30.8107C4.87637 30.3219 4.41062 29.694 4.11567 28.9825C3.82072 28.2709 3.70566 27.4977 3.78066 26.7311C3.85567 25.9645 4.11843 25.2282 4.5457 24.5873C4.97298 23.9464 5.5516 23.4207 6.2304 23.0566C6.90919 22.6926 7.66724 22.5014 8.4375 22.5H41.25" stroke="#51DC98" stroke-width="2.8125" stroke-linecap="round" stroke-linejoin="round"/>
</svg>
